<?xml version="1.0" encoding="utf-8"?>
<!-- Generator: Adobe Illustrator 22.0.1, SVG Export Plug-In . SVG Version: 6.00 Build 0)  -->
<svg version="1.1" id="Layer_1" xmlns="http://www.w3.org/2000/svg" xmlns:xlink="http://www.w3.org/1999/xlink" x="0px" y="0px"
	 viewBox="0 0 145.4 23.2" style="enable-background:new 0 0 145.4 23.2;" xml:space="preserve">
<style type="text/css">
	.st0{fill:#E51F37;}
</style>
<g>
	<g>
		<polygon class="st0" points="24.8,22.3 38.6,22.3 38.6,17.7 29.5,17.7 29.5,13.9 37.7,13.9 37.7,9.3 29.5,9.3 29.5,5.5 38.6,5.5 
			38.6,0.9 24.8,0.9 		"/>
		<polygon class="st0" points="51.9,11.5 45.8,0.9 41.3,0.9 41.3,22.3 46,22.3 46,11.7 45.9,9.8 50.5,18 53.3,18 57.9,9.9 
			57.8,11.8 57.8,22.3 62.5,22.3 62.5,0.9 58,0.9 		"/>
		<path class="st0" d="M83.6,3.7c-1-1-2.2-1.8-3.5-2.4c-1.4-0.6-2.8-0.9-4.4-0.9c-1.6,0-3.1,0.3-4.4,0.9c-1.4,0.6-2.5,1.4-3.5,2.4
			c-1,1-1.8,2.2-2.3,3.5c-0.6,1.4-0.8,2.8-0.8,4.4s0.3,3,0.8,4.4c0.6,1.4,1.4,2.5,2.3,3.5c1,1,2.2,1.8,3.5,2.4
			c1.4,0.6,2.8,0.9,4.4,0.9c1.6,0,3.1-0.3,4.4-0.9c1.4-0.6,2.5-1.4,3.5-2.4c1-1,1.8-2.2,2.3-3.5c0.6-1.4,0.8-2.8,0.8-4.4
			s-0.3-3-0.8-4.4C85.3,5.9,84.5,4.7,83.6,3.7z M82,11.6c0,1-0.2,1.9-0.5,2.7c-0.3,0.8-0.8,1.5-1.4,2.1c-0.6,0.6-1.3,1-2,1.3
			c-1.5,0.6-3.5,0.6-5,0c-0.8-0.3-1.5-0.8-2-1.3c-0.6-0.6-1-1.3-1.4-2.1c-0.3-0.8-0.5-1.7-0.5-2.7s0.2-1.9,0.5-2.7
			c0.3-0.8,0.8-1.5,1.4-2.1c0.6-0.6,1.3-1,2-1.3c0.8-0.3,1.6-0.5,2.5-0.5c0.9,0,1.7,0.2,2.5,0.5c0.8,0.3,1.5,0.8,2,1.3
			c0.6,0.6,1,1.3,1.4,2.1C81.8,9.7,82,10.6,82,11.6z"/>
		<polygon class="st0" points="101.7,11.2 101.8,13.7 94.1,0.9 88.9,0.9 88.9,22.3 93.7,22.3 93.7,11.3 93.5,8.8 101.6,22.3 
			106.4,22.3 106.4,0.9 101.7,0.9 		"/>
		<polygon class="st0" points="109.6,22.3 123.5,22.3 123.5,17.7 114.4,17.7 114.4,13.9 122.6,13.9 122.6,9.3 114.4,9.3 114.4,5.5 
			123.5,5.5 123.5,0.9 109.6,0.9 		"/>
		<polygon class="st0" points="137.5,11.2 144,0.9 138.2,0.9 134.3,7.4 130.5,0.9 124.6,0.9 131.1,11.2 124.1,22.3 130,22.3 
			134.3,15.2 138.6,22.3 144.5,22.3 		"/>
		<g>
			<path class="st0" d="M5.5,10.2c0.1-0.5,0.2-0.9,0.4-1.3c0.3-0.8,0.8-1.5,1.4-2.1c0.6-0.6,1.3-1,2-1.3c0.8-0.3,1.6-0.5,2.5-0.5
				c1.1,0,2,0.2,2.8,0.5c0.8,0.3,1.5,0.9,2.1,1.5L17,7.4l3.3-3.2L20,3.9c-1-1.1-2.2-1.9-3.5-2.5c-1.4-0.6-2.9-0.9-4.6-0.9
				c-1.5,0-3,0.3-4.4,0.8C6.1,1.9,4.9,2.6,3.9,3.6c-1,1-1.8,2.2-2.4,3.5c-0.4,0.9-0.7,2-0.8,3L5.5,10.2z"/>
			<path class="st0" d="M22.4,11.4c0-0.3-0.1-0.6-0.2-0.9l-0.1-0.3h-7.8l-4.2,4.2h7.5c-0.1,0.4-0.3,0.8-0.4,1.1
				c-0.2,0.5-0.5,0.9-0.9,1.2c-0.5,0.5-1.1,0.8-1.8,1.1c-0.7,0.3-1.6,0.4-2.6,0.4c-0.9,0-1.7-0.2-2.5-0.5c-0.6-0.2-1.2-0.6-1.7-1
				l-3.3,3.3c0.9,0.8,1.9,1.4,3.1,1.9c1.4,0.6,2.8,0.8,4.4,0.8c1.7,0,3.2-0.3,4.5-0.8c1.3-0.6,2.5-1.4,3.4-2.4c0.9-1,1.6-2.1,2-3.3
				c0.4-1.2,0.6-2.5,0.6-3.9C22.5,12.1,22.4,11.7,22.4,11.4z"/>
		</g>
	</g>
</g>
</svg>
